HIERARCHY
ROOT Hips
{
	OFFSET	0	0	0
	CHANNELS 6  Xposition Yposition Zposition Xrotation Yrotation Zrotation
	JOINT Spine
	{
		OFFSET	0	7.0817	1.42564
		CHANNELS 3  Xrotation Yrotation Zrotation
		JOINT Spine1
		{
			OFFSET	0	12.1578	-2.17103
			CHANNELS 3  Xrotation Yrotation Zrotation
			JOINT Spine2
			{
				OFFSET	0	9.21601	0.987817
				CHANNELS 3  Xrotation Yrotation Zrotation
				JOINT Spine3
				{
					OFFSET	0	11.0288	3.27825
					CHANNELS 3  Xrotation Yrotation Zrotation
					JOINT Spine4
					{
						OFFSET	0	16.3261	-1.67169
						CHANNELS 3  Xrotation Yrotation Zrotation
						JOINT Neck
						{
							OFFSET	0	7.79399	-5.46013
							CHANNELS 3  Xrotation Yrotation Zrotation
							JOINT Head
							{
								OFFSET	0	9.35713	-2.80063
								CHANNELS 3  Xrotation Yrotation Zrotation
								End Site
								{
									OFFSET	0	19.5175	-0.944397
								}
							}
						}
					}
					JOINT LeftShoulder
					{
						OFFSET	-4.68942	19.8432	-9.35713
						CHANNELS 3  Xrotation Yrotation Zrotation
						JOINT LeftArm
						{
							OFFSET	-10.2519	-2.80063	3.59307
							CHANNELS 3  Xrotation Yrotation Zrotation
							JOINT LeftForeArm
							{
								OFFSET	-34.1249	-1.55752	2.4358
								CHANNELS 3  Xrotation Yrotation Zrotation
								JOINT LeftHand
								{
									OFFSET	-28.1809	-1.94746	2.01152
									CHANNELS 3  Xrotation Yrotation Zrotation
									End Site
									{
										OFFSET	-10.2846	-0.710727	0.734058
									}
								}
							}
						}
					}
					JOINT RightShoulder
					{
						OFFSET	4.68942	19.8432	-9.35713
						CHANNELS 3  Xrotation Yrotation Zrotation
						JOINT RightArm
						{
							OFFSET	10.2519	-2.80063	3.59307
							CHANNELS 3  Xrotation Yrotation Zrotation
							JOINT RightForeArm
							{
								OFFSET	34.1249	-1.55752	2.4358
								CHANNELS 3  Xrotation Yrotation Zrotation
								JOINT RightHand
								{
									OFFSET	28.1809	-1.94746	2.01152
									CHANNELS 3  Xrotation Yrotation Zrotation
									End Site
									{
										OFFSET	10.2846	-0.710727	0.734058
									}
								}
							}
						}
					}
				}
			}
		}
	}
	JOINT LeftUpLeg
	{
		OFFSET	-9.64475	-3.54085	-0.712821
		CHANNELS 3  Xrotation Yrotation Zrotation
		JOINT LeftLeg
		{
			OFFSET	-2.14734	-42.0762	-0.657743
			CHANNELS 3  Xrotation Yrotation Zrotation
			JOINT LeftFoot
			{
				OFFSET	-2.09898	-38.6909	3.32741
				CHANNELS 3  Xrotation Yrotation Zrotation
				JOINT LeftToeBase
				{
					OFFSET	0	-4.81787	-12.7963
					CHANNELS 3  Xrotation Yrotation Zrotation
					End Site
					{
						OFFSET	0	-1.92715	-7.70859
					}
				}
			}
		}
	}
	JOINT RightUpLeg
	{
		OFFSET	9.64475	-3.54085	-0.712821
		CHANNELS 3  Xrotation Yrotation Zrotation
		JOINT RightLeg
		{
			OFFSET	2.14734	-42.0762	-0.657743
			CHANNELS 3  Xrotation Yrotation Zrotation
			JOINT RightFoot
			{
				OFFSET	2.09898	-38.6909	3.32741
				CHANNELS 3  Xrotation Yrotation Zrotation
				JOINT RightToeBase
				{
					OFFSET	0	-4.81787	-12.7963
					CHANNELS 3  Xrotation Yrotation Zrotation
					End Site
					{
						OFFSET	0	-1.92715	-7.70859
					}
				}
			}
		}
	}
}
MOTION
Frames: 15
Frame Time: 0.020408
 0 -10.1657 2.85827 -0 0 -0 -0 0 -0 -0 0 -0 -0 0 -0 -0 0 -0 -0 0 -0 -0 0 -0 -0 0 -0 -0 0 -0 -0 0 -0 -0 0 -0 -0 0 -0 -0 0 -0 -0 0 -0 -0 0 -0 -0 0 -0 -0 0 -0 -0 0 -0 -0 0 -0 -0 0 -0 -0 0 -0 -0 0 -0 -0 0 -0 -0 0 -0
 -30.7606 91.9057 -173.041 34.5161 -93.4978 38.1876 0.00147661 0.058356 -1.44948 2.33391 0.116646 -2.4158 2.41901 0.349937 -2.41584 1.77993 0.058356 -1.44948 0.249457 -0.00210364 -0.483154 178.429 177.263 -176.36 179.548 178.914 -178.861 175.668 -169.942 170.974 167.667 172.825 173.973 4.25773 -5.72018 -1.17528 -0 -1.51282 -0.357059 176.796 -170.29 -174.435 1.68348 16.8486 20.1717 6.09483 6.4424 0.90529 -0 -15.7282 -15.2608 4.46768 -5.83295 -8.35716 173.468 167.567 179.158 2.35493 0.0319833 6.50296 179.76 180 -180 0.0194596 -7.20593 2.53686 177.201 -168.524 -179.617 0.47524 -0.340601 -6.85565 0.31041 0 0
 -30.7167 92.0783 -173.182 39.9333 -93.3512 43.7173 0.00155199 0.0603591 -1.4729 2.34813 0.120647 -2.45484 2.43523 0.361942 -2.45489 1.79378 0.0603591 -1.4729 0.243711 -0.0020884 -0.490963 178.407 177.31 -176.557 179.539 178.795 -178.909 175.177 -170.321 169.961 168.681 171.462 170.029 3.70672 -5.50864 -1.39385 -0 -1.69735 -2.2705 175.923 -170.383 -172.896 2.91678 15.9265 23.5784 5.55436 5.81929 0.960803 -0 -13.5962 -8.89836 4.5681 -6.07076 -8.35625 173.756 167.607 179.104 1.96854 0.0552879 6.42429 179.789 180 -180 0.107654 -7.51733 2.5412 177.275 -168.516 -179.797 0.140314 -0.39001 -6.69886 0.323916 0 0
 -30.5506 92.2062 -173.09 42.7987 -93.351 46.6675 0.00134047 0.0519996 -1.47666 2.35003 0.103938 -2.46111 2.43822 0.311814 -2.46114 1.8028 0.0519996 -1.47667 0.227089 -0.00195094 -0.492218 178.356 177.329 -176.534 179.524 178.843 -178.906 175.099 -171.184 169.846 169.846 169.803 166.038 2.74997 -5.53882 -1.65304 -0 -2.57649 -3.79197 174.965 -170.14 -171.23 3.97445 14.8627 26.3344 4.91942 5.82236 1.06707 -0 -11.1351 -3.14131 4.38166 -6.15103 -8.46937 174.266 167.667 179.041 1.60574 0.066966 6.45696 179.812 180 -180 0.0367606 -7.80862 2.40577 177.457 -168.477 -179.898 179.959 -179.637 173.527 0.33137 0 0
 -30.3994 92.3021 -173.114 40.038 -93.6621 43.9835 0.00128729 0.0494267 -1.4919 2.35691 0.0987938 -2.48651 2.43367 0.296382 -2.48654 1.77426 0.0494267 -1.4919 0.30687 -0.00266354 -0.497294 178.578 177.085 -176.54 179.591 178.448 -178.875 174.953 -171.765 169.573 171.193 168.23 161.948 1.40391 -5.53104 -1.89774 -0 -3.62322 -5.16067 173.925 -169.325 -169.497 4.84675 13.8664 27.929 4.41295 6.42728 1.01071 -0 -8.40281 1.91991 4.22273 -6.16126 -8.66915 174.397 167.612 179.066 1.60557 0.148953 6.42591 179.851 180 -180 0.115813 -8.02887 2.15397 177.47 -168.514 -179.843 179.802 -179.685 173.64 0.33765 0 0
 -30.2269 92.414 -173.006 41.472 -93.7492 45.6123 0.00079089 0.0298766 -1.51638 2.36726 0.0597159 -2.52729 2.4294 0.179148 -2.5273 1.74782 0.0298766 -1.51638 0.3901 -0.00344149 -0.505447 178.81 176.623 -176.588 179.659 177.635 -178.823 175.004 -172.173 169.707 172.749 166.969 158.343 179.794 -174.47 178.005 -0 -4.99618 -6.04273 172.664 -168.944 -167.319 5.77368 12.6661 29.0512 3.74318 6.59201 1.2685 -0 -5.56681 6.7024 4.0806 -6.23869 -8.93204 174.637 167.647 179.25 1.44081 0.205382 6.4016 179.902 180 -180 0.0290944 -8.15039 2.06346 177.625 -168.507 179.953 179.654 -179.713 173.837 0.345857 0 0
 -30.1653 92.4932 -172.993 39.9746 -94.0616 44.1674 0.000692833 0.0262383 -1.51257 2.35842 0.0524441 -2.52094 2.42166 0.157332 -2.52095 1.7473 0.0262383 -1.51257 0.374995 -0.00329992 -0.504178 178.792 176.371 -176.927 179.648 176.851 -178.859 175.049 -172.309 169.809 174.408 166.051 155.153 178.159 -174.522 177.877 -0 -6.28815 -6.66491 171.785 -168.808 -165.765 6.8842 11.7719 29.6472 3.07931 6.01676 1.46412 -0 -3.29528 11.1351 4.0543 -6.03512 -8.96672 174.867 167.739 179.174 1.29172 0.25479 6.33878 179.945 180 -180 0.130723 -8.25215 2.01871 177.757 -168.528 179.881 179.451 -179.714 173.905 0.348678 0 0
 -30.1099 92.5139 -172.967 37.8814 -94.4418 42.0714 0.000578697 0.0220369 -1.50426 2.37184 0.0440467 -2.50711 2.44824 0.13214 -2.50711 1.79816 0.0220369 -1.50427 0.282132 -0.00246912 -0.501415 178.537 176.183 -177.458 179.564 175.949 -178.941 175.192 -172.207 170.102 175.83 165.341 152.699 176.647 -174.533 177.761 -0 -7.11729 -7.03934 171.111 -169.52 -164.388 8.64904 10.7676 30.4183 2.55186 5.60657 1.5339 -0 -1.87909 15.4472 3.90208 -6.03088 -9.07619 175.223 167.803 179.276 1.17949 0.314981 6.25692 179.988 180 -180 0.508487 -8.28824 1.99248 177.435 -168.603 179.958 179.504 -179.757 173.944 0.349951 0 0
 -30.0857 92.5168 -172.918 37.9581 -94.7792 42.0773 0.000659165 0.0249675 -1.51231 2.40477 0.0499041 -2.52052 2.46172 0.149712 -2.52053 1.76004 0.0249675 -1.51231 0.432942 -0.0038092 -0.504089 178.94 175.667 -177.31 179.684 175.266 -178.845 175.509 -172.31 170.766 177.228 164.976 150.88 175.354 -174.555 177.749 -0 -7.49685 -7.43152 170.81 -170.374 -163.645 10.7646 9.77203 31.2643 2.34465 5.66576 1.48787 -0 -1.06038 19.2968 3.90564 -5.96727 -9.00409 175.593 167.897 179.17 1.03829 0.335348 6.2578 0.0567617 0 0 0.722832 -8.05475 2.078 177.526 -168.638 179.813 179.498 -179.706 174.043 0.346204 0 0
 -30.067 92.4636 -172.867 40.4781 -94.847 44.4467 0.000330844 0.0126457 -1.49866 2.43242 0.025276 -2.49777 2.47789 0.0758281 -2.49778 1.751 0.0126457 -1.49866 0.507556 -0.00442537 -0.499535 179.131 175.359 -177.264 179.739 174.81 -178.796 175.969 -172.481 171.73 178.566 164.435 149.904 174.303 -174.535 177.683 -0 -7.92631 -7.65954 170.638 -171.035 -163.177 12.553 8.98509 31.8764 2.33037 5.73973 1.3744 -0 -0.440917 22.4322 4.12733 -5.78501 -8.90186 175.711 168.117 179.223 1.00437 0.28226 6.15724 0.111785 0 0 0.893365 -8.07636 2.13222 177.53 -168.664 179.951 179.708 -179.669 174.035 0.337138 0 0
 -30.0491 92.4159 -172.816 40.3754 -95.082 44.197 0.000613297 0.0236237 -1.48713 2.46235 0.047219 -2.47855 2.50221 0.141657 -2.47856 1.74813 0.0236237 -1.48713 0.569678 -0.00492876 -0.495685 179.28 174.983 -177.042 179.784 174.415 -178.701 176.417 -172.399 172.652 179.452 164.19 149.637 173.429 -174.16 177.608 -0 -8.46947 -7.43147 170.586 -171.823 -162.908 13.9224 8.61768 31.9979 2.4181 5.77235 1.26345 -0 0.104027 24.5802 4.07696 -5.8986 -8.90404 175.961 168.156 179.431 0.961947 0.363667 6.02746 0.155274 0 0 1.20462 -7.83254 2.28699 177.281 -168.678 179.882 179.981 -179.668 174.119 0.333363 0 0
 -30.0409 92.3941 -172.801 39.6234 -95.4112 43.3457 0.000364961 0.014115 -1.48113 2.47649 0.0282131 -2.46855 2.5081 0.0846394 -2.46855 1.73808 0.014115 -1.48113 0.62083 -0.00534964 -0.493681 179.408 174.701 -176.825 179.824 174.177 -178.62 176.86 -172.63 173.575 179.979 163.833 149.823 172.531 -173.975 177.574 -0 -8.9568 -6.50467 170.581 -172.355 -162.786 14.8092 8.34201 31.2977 2.61536 5.77329 1.12894 -0 0.563897 26.1507 4.19139 -5.73983 -8.87875 176.049 168.492 179.535 0.98097 0.412609 5.92347 0.190265 0 0 1.57651 -7.63173 2.42434 177.039 -168.691 179.808 0.0894778 -0.332269 -5.81116 0.332832 0 0
 -30.0442 92.3783 -173.005 39.4958 -95.7614 43.1298 0.000180946 0.00705961 -1.46824 2.49121 0.014111 -2.44706 2.52075 0.0423329 -2.44706 1.74559 0.00705961 -1.46824 0.631821 -0.00539694 -0.489382 179.43 174.645 -176.909 179.829 173.998 -178.63 177.221 -172.898 174.326 179.869 163.35 150.634 171.48 -173.906 177.417 -0 -9.42725 -4.83398 170.656 -172.425 -162.917 15.0767 8.25336 29.9022 2.77382 5.75536 1.18301 -0 1.01181 27.0161 4.3272 -5.94058 -8.60598 176.207 168.872 179.433 1.01375 0.530114 5.83245 0.226124 0 0 2.05877 -7.36313 2.73384 176.714 -168.673 179.67 0.123493 -0.349975 -5.81551 0.335258 0 0
 -30.0427 92.3534 -172.854 37.2689 -96.1116 40.7021 180 -179.997 178.594 2.50128 -0.00643042 -2.34342 2.52914 -0.0192913 -2.34342 1.75276 -0.00321693 -1.40605 0.635166 -0.00519571 -0.468655 179.428 174.546 -176.829 179.829 173.91 -178.6 178.187 -173.159 176.31 179.674 162.464 152.618 170.354 -173.862 177.131 -0 -10.1187 -2.84291 170.618 -172.662 -162.795 15.138 8.25208 27.8451 3.02392 5.63696 1.1407 -0 1.32784 27.1187 4.16627 -6.00549 -8.52186 176.469 168.941 179.416 0.910641 0.588849 5.94925 0.259784 0 0 2.29083 -7.18456 2.89343 176.554 -168.576 179.57 0.265823 -0.235236 -5.65845 0.331556 0 0
 -30.038 92.3879 -173.053 36.562 -96.4543 39.8642 0.000259808 0.0106826 -1.3932 2.51239 0.0213539 -2.322 2.53599 0.0640617 -2.322 1.74022 0.0106826 -1.3932 0.684074 -0.00554463 -0.464368 179.55 174.151 -176.472 179.868 173.626 -178.475 179.109 -173.139 178.187 179.315 161.978 155.088 169.417 -173.616 177.039 -0 -10.9074 -1.39442 170.917 -172.808 -163.343 15.0807 7.94337 24.597 3.31307 5.64275 0.931763 -0 1.42997 26.2454 4.18779 -6.26739 -8.18346 176.562 168.895 179.318 0.932469 0.596181 5.86029 0.290901 0 0 2.69171 -7.07087 3.14841 176.317 -168.474 179.606 0.187045 -0.208517 -5.76285 0.338284 0 0
